G04 EAGLE Gerber RS-274X export*
G75*
%MOMM*%
%FSLAX34Y34*%
%LPD*%
%INTop Copper*%
%IPPOS*%
%AMOC8*
5,1,8,0,0,1.08239X$1,22.5*%
G01*
%ADD10P,1.732040X8X22.500000*%
%ADD11C,1.600200*%
%ADD12C,1.320800*%
%ADD13P,1.429621X8X112.500000*%
%ADD14P,1.429621X8X22.500000*%
%ADD15P,1.429621X8X202.500000*%
%ADD16P,1.649562X8X22.500000*%
%ADD17C,1.508000*%
%ADD18C,0.152400*%


D10*
X292100Y50800D03*
D11*
X266700Y50800D03*
D12*
X25400Y120396D02*
X25400Y133604D01*
X25400Y32004D02*
X25400Y18796D01*
D13*
X101600Y25400D03*
X101600Y127000D03*
D14*
X190500Y101600D03*
X292100Y101600D03*
D13*
X63500Y25400D03*
X63500Y127000D03*
D15*
X292100Y203200D03*
X190500Y203200D03*
D14*
X63500Y152400D03*
X165100Y152400D03*
D16*
X110236Y254000D03*
X137668Y254000D03*
X165100Y254000D03*
X192532Y254000D03*
X219964Y254000D03*
X123952Y279400D03*
X151384Y279400D03*
X178816Y279400D03*
X206248Y279400D03*
D17*
X139700Y45640D02*
X139700Y30560D01*
X165100Y30560D02*
X165100Y45640D01*
X190500Y45640D02*
X190500Y30560D01*
X215900Y30560D02*
X215900Y45640D01*
D12*
X190500Y145796D02*
X190500Y159004D01*
X241300Y159004D02*
X241300Y145796D01*
X215900Y145796D02*
X215900Y159004D01*
X101600Y196596D02*
X101600Y209804D01*
X152400Y209804D02*
X152400Y196596D01*
X127000Y196596D02*
X127000Y209804D01*
D18*
X190500Y102108D02*
X240792Y152400D01*
X190500Y102108D02*
X190500Y101600D01*
X240792Y152400D02*
X241300Y152400D01*
X214884Y76200D02*
X214884Y38100D01*
X214884Y76200D02*
X190500Y100584D01*
X214884Y38100D02*
X215900Y38100D01*
X190500Y100584D02*
X190500Y101600D01*
X281940Y50292D02*
X291084Y50292D01*
X281940Y50292D02*
X269748Y38100D01*
X216408Y38100D01*
X291084Y50292D02*
X292100Y50800D01*
X216408Y38100D02*
X215900Y38100D01*
X131064Y24384D02*
X102108Y24384D01*
X131064Y24384D02*
X135636Y19812D01*
X172212Y19812D01*
X190500Y38100D01*
X102108Y24384D02*
X101600Y25400D01*
X190500Y114300D02*
X190500Y152400D01*
X190500Y114300D02*
X181356Y105156D01*
X181356Y47244D01*
X190500Y38100D01*
X292608Y169164D02*
X292608Y202692D01*
X292608Y169164D02*
X292608Y102108D01*
X292100Y101600D01*
X292608Y202692D02*
X292100Y203200D01*
X220980Y152400D02*
X216408Y152400D01*
X220980Y152400D02*
X237744Y169164D01*
X292608Y169164D01*
X216408Y152400D02*
X215900Y152400D01*
X62484Y25908D02*
X25908Y25908D01*
X25400Y25400D01*
X62484Y25908D02*
X63500Y25400D01*
X137160Y239268D02*
X137160Y252984D01*
X137160Y239268D02*
X102108Y204216D01*
X137160Y252984D02*
X137668Y254000D01*
X102108Y204216D02*
X101600Y203200D01*
X76200Y152400D02*
X64008Y152400D01*
X76200Y152400D02*
X126492Y202692D01*
X64008Y152400D02*
X63500Y152400D01*
X126492Y202692D02*
X127000Y203200D01*
X166116Y152400D02*
X166116Y38100D01*
X166116Y152400D02*
X165100Y152400D01*
X165100Y38100D02*
X166116Y38100D01*
X102108Y128016D02*
X102108Y152400D01*
X152400Y202692D01*
X102108Y128016D02*
X101600Y127000D01*
X152400Y202692D02*
X152400Y203200D01*
X138684Y89916D02*
X138684Y38100D01*
X138684Y89916D02*
X102108Y126492D01*
X138684Y38100D02*
X139700Y38100D01*
X102108Y126492D02*
X101600Y127000D01*
M02*
