G04 EAGLE Gerber RS-274X export*
G75*
%MOMM*%
%FSLAX34Y34*%
%LPD*%
%INBottom Copper*%
%IPPOS*%
%AMOC8*
5,1,8,0,0,1.08239X$1,22.5*%
G01*
%ADD10C,0.130000*%
%ADD11C,0.152400*%
%ADD12P,1.732040X8X22.500000*%
%ADD13C,1.600200*%
%ADD14C,1.320800*%
%ADD15P,1.429621X8X112.500000*%
%ADD16P,1.429621X8X22.500000*%
%ADD17P,1.429621X8X202.500000*%
%ADD18P,1.649562X8X22.500000*%
%ADD19C,1.508000*%


D10*
X326900Y0D02*
X400500Y0D01*
X400500Y380900D02*
X326900Y380900D01*
X381000Y380250D02*
X381000Y650D01*
X377808Y26000D01*
X384192Y26000D01*
X381000Y650D01*
X379700Y26000D01*
X382300Y26000D02*
X381000Y650D01*
X378400Y26000D01*
X383600Y26000D02*
X381000Y650D01*
X377808Y354900D02*
X381000Y380250D01*
X377808Y354900D02*
X384192Y354900D01*
X381000Y380250D01*
X379700Y354900D01*
X382300Y354900D02*
X381000Y380250D01*
X378400Y354900D01*
X383600Y354900D02*
X381000Y380250D01*
D11*
X358237Y163936D02*
X358237Y159421D01*
X358237Y163936D02*
X358239Y164069D01*
X358245Y164201D01*
X358255Y164333D01*
X358268Y164465D01*
X358286Y164597D01*
X358307Y164727D01*
X358332Y164858D01*
X358361Y164987D01*
X358394Y165115D01*
X358430Y165243D01*
X358470Y165369D01*
X358514Y165494D01*
X358562Y165618D01*
X358613Y165740D01*
X358668Y165861D01*
X358726Y165980D01*
X358788Y166098D01*
X358853Y166213D01*
X358922Y166327D01*
X358993Y166438D01*
X359069Y166547D01*
X359147Y166654D01*
X359228Y166759D01*
X359313Y166861D01*
X359400Y166961D01*
X359490Y167058D01*
X359583Y167153D01*
X359679Y167244D01*
X359777Y167333D01*
X359878Y167419D01*
X359982Y167502D01*
X360088Y167582D01*
X360196Y167658D01*
X360306Y167732D01*
X360419Y167802D01*
X360533Y167869D01*
X360650Y167932D01*
X360768Y167992D01*
X360888Y168049D01*
X361010Y168102D01*
X361133Y168151D01*
X361257Y168197D01*
X361383Y168239D01*
X361510Y168277D01*
X361638Y168312D01*
X361767Y168343D01*
X361896Y168370D01*
X362027Y168393D01*
X362158Y168413D01*
X362290Y168428D01*
X362422Y168440D01*
X362554Y168448D01*
X362687Y168452D01*
X362819Y168452D01*
X362952Y168448D01*
X363084Y168440D01*
X363216Y168428D01*
X363348Y168413D01*
X363479Y168393D01*
X363610Y168370D01*
X363739Y168343D01*
X363868Y168312D01*
X363996Y168277D01*
X364123Y168239D01*
X364249Y168197D01*
X364373Y168151D01*
X364496Y168102D01*
X364618Y168049D01*
X364738Y167992D01*
X364856Y167932D01*
X364973Y167869D01*
X365087Y167802D01*
X365200Y167732D01*
X365310Y167658D01*
X365418Y167582D01*
X365524Y167502D01*
X365628Y167419D01*
X365729Y167333D01*
X365827Y167244D01*
X365923Y167153D01*
X366016Y167058D01*
X366106Y166961D01*
X366193Y166861D01*
X366278Y166759D01*
X366359Y166654D01*
X366437Y166547D01*
X366513Y166438D01*
X366584Y166327D01*
X366653Y166213D01*
X366718Y166098D01*
X366780Y165980D01*
X366838Y165861D01*
X366893Y165740D01*
X366944Y165618D01*
X366992Y165494D01*
X367036Y165369D01*
X367076Y165243D01*
X367112Y165115D01*
X367145Y164987D01*
X367174Y164858D01*
X367199Y164727D01*
X367220Y164597D01*
X367238Y164465D01*
X367251Y164333D01*
X367261Y164201D01*
X367267Y164069D01*
X367269Y163936D01*
X374493Y164839D02*
X374493Y159421D01*
X374493Y164839D02*
X374491Y164958D01*
X374485Y165078D01*
X374475Y165197D01*
X374461Y165315D01*
X374444Y165434D01*
X374422Y165551D01*
X374397Y165668D01*
X374367Y165783D01*
X374334Y165898D01*
X374297Y166012D01*
X374257Y166124D01*
X374212Y166235D01*
X374164Y166344D01*
X374113Y166452D01*
X374058Y166558D01*
X373999Y166662D01*
X373937Y166764D01*
X373872Y166864D01*
X373803Y166962D01*
X373731Y167058D01*
X373656Y167151D01*
X373579Y167241D01*
X373498Y167329D01*
X373414Y167414D01*
X373327Y167496D01*
X373238Y167576D01*
X373146Y167652D01*
X373052Y167726D01*
X372955Y167796D01*
X372857Y167863D01*
X372756Y167927D01*
X372652Y167987D01*
X372547Y168044D01*
X372440Y168097D01*
X372332Y168147D01*
X372222Y168193D01*
X372110Y168235D01*
X371997Y168274D01*
X371883Y168309D01*
X371768Y168340D01*
X371651Y168368D01*
X371534Y168391D01*
X371417Y168411D01*
X371298Y168427D01*
X371179Y168439D01*
X371060Y168447D01*
X370941Y168451D01*
X370821Y168451D01*
X370702Y168447D01*
X370583Y168439D01*
X370464Y168427D01*
X370345Y168411D01*
X370228Y168391D01*
X370111Y168368D01*
X369994Y168340D01*
X369879Y168309D01*
X369765Y168274D01*
X369652Y168235D01*
X369540Y168193D01*
X369430Y168147D01*
X369322Y168097D01*
X369215Y168044D01*
X369110Y167987D01*
X369006Y167927D01*
X368905Y167863D01*
X368807Y167796D01*
X368710Y167726D01*
X368616Y167652D01*
X368524Y167576D01*
X368435Y167496D01*
X368348Y167414D01*
X368264Y167329D01*
X368183Y167241D01*
X368106Y167151D01*
X368031Y167058D01*
X367959Y166962D01*
X367890Y166864D01*
X367825Y166764D01*
X367763Y166662D01*
X367704Y166558D01*
X367649Y166452D01*
X367598Y166344D01*
X367550Y166235D01*
X367505Y166124D01*
X367465Y166012D01*
X367428Y165898D01*
X367395Y165783D01*
X367365Y165668D01*
X367340Y165551D01*
X367318Y165434D01*
X367301Y165315D01*
X367287Y165197D01*
X367277Y165078D01*
X367271Y164958D01*
X367269Y164839D01*
X367268Y164839D02*
X367268Y161227D01*
X362753Y175052D02*
X362886Y175054D01*
X363018Y175060D01*
X363150Y175070D01*
X363282Y175083D01*
X363414Y175101D01*
X363544Y175122D01*
X363675Y175147D01*
X363804Y175176D01*
X363932Y175209D01*
X364060Y175245D01*
X364186Y175285D01*
X364311Y175329D01*
X364435Y175377D01*
X364557Y175428D01*
X364678Y175483D01*
X364797Y175541D01*
X364915Y175603D01*
X365030Y175668D01*
X365144Y175737D01*
X365255Y175808D01*
X365364Y175884D01*
X365471Y175962D01*
X365576Y176043D01*
X365678Y176128D01*
X365778Y176215D01*
X365875Y176305D01*
X365970Y176398D01*
X366061Y176494D01*
X366150Y176592D01*
X366236Y176693D01*
X366319Y176797D01*
X366399Y176903D01*
X366475Y177011D01*
X366549Y177121D01*
X366619Y177234D01*
X366686Y177348D01*
X366749Y177465D01*
X366809Y177583D01*
X366866Y177703D01*
X366919Y177825D01*
X366968Y177948D01*
X367014Y178072D01*
X367056Y178198D01*
X367094Y178325D01*
X367129Y178453D01*
X367160Y178582D01*
X367187Y178711D01*
X367210Y178842D01*
X367230Y178973D01*
X367245Y179105D01*
X367257Y179237D01*
X367265Y179369D01*
X367269Y179502D01*
X367269Y179634D01*
X367265Y179767D01*
X367257Y179899D01*
X367245Y180031D01*
X367230Y180163D01*
X367210Y180294D01*
X367187Y180425D01*
X367160Y180554D01*
X367129Y180683D01*
X367094Y180811D01*
X367056Y180938D01*
X367014Y181064D01*
X366968Y181188D01*
X366919Y181311D01*
X366866Y181433D01*
X366809Y181553D01*
X366749Y181671D01*
X366686Y181788D01*
X366619Y181902D01*
X366549Y182015D01*
X366475Y182125D01*
X366399Y182233D01*
X366319Y182339D01*
X366236Y182443D01*
X366150Y182544D01*
X366061Y182642D01*
X365970Y182738D01*
X365875Y182831D01*
X365778Y182921D01*
X365678Y183008D01*
X365576Y183093D01*
X365471Y183174D01*
X365364Y183252D01*
X365255Y183328D01*
X365144Y183399D01*
X365030Y183468D01*
X364915Y183533D01*
X364797Y183595D01*
X364678Y183653D01*
X364557Y183708D01*
X364435Y183759D01*
X364311Y183807D01*
X364186Y183851D01*
X364060Y183891D01*
X363932Y183927D01*
X363804Y183960D01*
X363675Y183989D01*
X363544Y184014D01*
X363414Y184035D01*
X363282Y184053D01*
X363150Y184066D01*
X363018Y184076D01*
X362886Y184082D01*
X362753Y184084D01*
X362620Y184082D01*
X362488Y184076D01*
X362356Y184066D01*
X362224Y184053D01*
X362092Y184035D01*
X361962Y184014D01*
X361831Y183989D01*
X361702Y183960D01*
X361574Y183927D01*
X361446Y183891D01*
X361320Y183851D01*
X361195Y183807D01*
X361071Y183759D01*
X360949Y183708D01*
X360828Y183653D01*
X360709Y183595D01*
X360591Y183533D01*
X360476Y183468D01*
X360362Y183399D01*
X360251Y183328D01*
X360142Y183252D01*
X360035Y183174D01*
X359930Y183093D01*
X359828Y183008D01*
X359728Y182921D01*
X359631Y182831D01*
X359536Y182738D01*
X359445Y182642D01*
X359356Y182544D01*
X359270Y182443D01*
X359187Y182339D01*
X359107Y182233D01*
X359031Y182125D01*
X358957Y182015D01*
X358887Y181902D01*
X358820Y181788D01*
X358757Y181671D01*
X358697Y181553D01*
X358640Y181433D01*
X358587Y181311D01*
X358538Y181188D01*
X358492Y181064D01*
X358450Y180938D01*
X358412Y180811D01*
X358377Y180683D01*
X358346Y180554D01*
X358319Y180425D01*
X358296Y180294D01*
X358276Y180163D01*
X358261Y180031D01*
X358249Y179899D01*
X358241Y179767D01*
X358237Y179634D01*
X358237Y179502D01*
X358241Y179369D01*
X358249Y179237D01*
X358261Y179105D01*
X358276Y178973D01*
X358296Y178842D01*
X358319Y178711D01*
X358346Y178582D01*
X358377Y178453D01*
X358412Y178325D01*
X358450Y178198D01*
X358492Y178072D01*
X358538Y177948D01*
X358587Y177825D01*
X358640Y177703D01*
X358697Y177583D01*
X358757Y177465D01*
X358820Y177348D01*
X358887Y177234D01*
X358957Y177121D01*
X359031Y177011D01*
X359107Y176903D01*
X359187Y176797D01*
X359270Y176693D01*
X359356Y176592D01*
X359445Y176494D01*
X359536Y176398D01*
X359631Y176305D01*
X359728Y176215D01*
X359828Y176128D01*
X359930Y176043D01*
X360035Y175962D01*
X360142Y175884D01*
X360251Y175808D01*
X360362Y175737D01*
X360476Y175668D01*
X360591Y175603D01*
X360709Y175541D01*
X360828Y175483D01*
X360949Y175428D01*
X361071Y175377D01*
X361195Y175329D01*
X361320Y175285D01*
X361446Y175245D01*
X361574Y175209D01*
X361702Y175176D01*
X361831Y175147D01*
X361962Y175122D01*
X362092Y175101D01*
X362224Y175083D01*
X362356Y175070D01*
X362488Y175060D01*
X362620Y175054D01*
X362753Y175052D01*
X370881Y175956D02*
X371000Y175958D01*
X371120Y175964D01*
X371239Y175974D01*
X371357Y175988D01*
X371476Y176005D01*
X371593Y176027D01*
X371710Y176052D01*
X371825Y176082D01*
X371940Y176115D01*
X372054Y176152D01*
X372166Y176192D01*
X372277Y176237D01*
X372386Y176285D01*
X372494Y176336D01*
X372600Y176391D01*
X372704Y176450D01*
X372806Y176512D01*
X372906Y176577D01*
X373004Y176646D01*
X373100Y176718D01*
X373193Y176793D01*
X373283Y176870D01*
X373371Y176951D01*
X373456Y177035D01*
X373538Y177122D01*
X373618Y177211D01*
X373694Y177303D01*
X373768Y177397D01*
X373838Y177494D01*
X373905Y177592D01*
X373969Y177693D01*
X374029Y177797D01*
X374086Y177902D01*
X374139Y178009D01*
X374189Y178117D01*
X374235Y178227D01*
X374277Y178339D01*
X374316Y178452D01*
X374351Y178566D01*
X374382Y178681D01*
X374410Y178798D01*
X374433Y178915D01*
X374453Y179032D01*
X374469Y179151D01*
X374481Y179270D01*
X374489Y179389D01*
X374493Y179508D01*
X374493Y179628D01*
X374489Y179747D01*
X374481Y179866D01*
X374469Y179985D01*
X374453Y180104D01*
X374433Y180221D01*
X374410Y180338D01*
X374382Y180455D01*
X374351Y180570D01*
X374316Y180684D01*
X374277Y180797D01*
X374235Y180909D01*
X374189Y181019D01*
X374139Y181127D01*
X374086Y181234D01*
X374029Y181339D01*
X373969Y181443D01*
X373905Y181544D01*
X373838Y181642D01*
X373768Y181739D01*
X373694Y181833D01*
X373618Y181925D01*
X373538Y182014D01*
X373456Y182101D01*
X373371Y182185D01*
X373283Y182266D01*
X373193Y182343D01*
X373100Y182418D01*
X373004Y182490D01*
X372906Y182559D01*
X372806Y182624D01*
X372704Y182686D01*
X372600Y182745D01*
X372494Y182800D01*
X372386Y182851D01*
X372277Y182899D01*
X372166Y182944D01*
X372054Y182984D01*
X371940Y183021D01*
X371825Y183054D01*
X371710Y183084D01*
X371593Y183109D01*
X371476Y183131D01*
X371357Y183148D01*
X371239Y183162D01*
X371120Y183172D01*
X371000Y183178D01*
X370881Y183180D01*
X370762Y183178D01*
X370642Y183172D01*
X370523Y183162D01*
X370405Y183148D01*
X370286Y183131D01*
X370169Y183109D01*
X370052Y183084D01*
X369937Y183054D01*
X369822Y183021D01*
X369708Y182984D01*
X369596Y182944D01*
X369485Y182899D01*
X369376Y182851D01*
X369268Y182800D01*
X369162Y182745D01*
X369058Y182686D01*
X368956Y182624D01*
X368856Y182559D01*
X368758Y182490D01*
X368662Y182418D01*
X368569Y182343D01*
X368479Y182266D01*
X368391Y182185D01*
X368306Y182101D01*
X368224Y182014D01*
X368144Y181925D01*
X368068Y181833D01*
X367994Y181739D01*
X367924Y181642D01*
X367857Y181544D01*
X367793Y181443D01*
X367733Y181339D01*
X367676Y181234D01*
X367623Y181127D01*
X367573Y181019D01*
X367527Y180909D01*
X367485Y180797D01*
X367446Y180684D01*
X367411Y180570D01*
X367380Y180455D01*
X367352Y180338D01*
X367329Y180221D01*
X367309Y180104D01*
X367293Y179985D01*
X367281Y179866D01*
X367273Y179747D01*
X367269Y179628D01*
X367269Y179508D01*
X367273Y179389D01*
X367281Y179270D01*
X367293Y179151D01*
X367309Y179032D01*
X367329Y178915D01*
X367352Y178798D01*
X367380Y178681D01*
X367411Y178566D01*
X367446Y178452D01*
X367485Y178339D01*
X367527Y178227D01*
X367573Y178117D01*
X367623Y178009D01*
X367676Y177902D01*
X367733Y177797D01*
X367793Y177693D01*
X367857Y177592D01*
X367924Y177494D01*
X367994Y177397D01*
X368068Y177303D01*
X368144Y177211D01*
X368224Y177122D01*
X368306Y177035D01*
X368391Y176951D01*
X368479Y176870D01*
X368569Y176793D01*
X368662Y176718D01*
X368758Y176646D01*
X368856Y176577D01*
X368956Y176512D01*
X369058Y176450D01*
X369162Y176391D01*
X369268Y176336D01*
X369376Y176285D01*
X369485Y176237D01*
X369596Y176192D01*
X369708Y176152D01*
X369822Y176115D01*
X369937Y176082D01*
X370052Y176052D01*
X370169Y176027D01*
X370286Y176005D01*
X370405Y175988D01*
X370523Y175974D01*
X370642Y175964D01*
X370762Y175958D01*
X370881Y175956D01*
X359140Y190058D02*
X358237Y190058D01*
X359140Y190058D02*
X359140Y190961D01*
X358237Y190961D01*
X358237Y190058D01*
X366365Y196936D02*
X366685Y196940D01*
X367004Y196951D01*
X367324Y196970D01*
X367642Y196997D01*
X367960Y197031D01*
X368277Y197073D01*
X368593Y197123D01*
X368908Y197180D01*
X369221Y197244D01*
X369533Y197316D01*
X369843Y197395D01*
X370150Y197482D01*
X370456Y197576D01*
X370759Y197677D01*
X371060Y197786D01*
X371358Y197901D01*
X371654Y198024D01*
X371946Y198154D01*
X372235Y198291D01*
X372236Y198290D02*
X372344Y198329D01*
X372451Y198372D01*
X372556Y198418D01*
X372660Y198469D01*
X372762Y198522D01*
X372862Y198579D01*
X372960Y198640D01*
X373055Y198704D01*
X373149Y198771D01*
X373240Y198842D01*
X373329Y198915D01*
X373415Y198992D01*
X373498Y199071D01*
X373579Y199153D01*
X373657Y199238D01*
X373731Y199326D01*
X373803Y199416D01*
X373871Y199508D01*
X373937Y199603D01*
X373999Y199700D01*
X374057Y199799D01*
X374113Y199901D01*
X374164Y200003D01*
X374212Y200108D01*
X374257Y200214D01*
X374298Y200322D01*
X374335Y200431D01*
X374368Y200541D01*
X374397Y200653D01*
X374423Y200765D01*
X374445Y200878D01*
X374462Y200992D01*
X374476Y201106D01*
X374486Y201221D01*
X374492Y201336D01*
X374494Y201451D01*
X374493Y201451D02*
X374491Y201566D01*
X374485Y201681D01*
X374475Y201796D01*
X374461Y201910D01*
X374444Y202024D01*
X374422Y202137D01*
X374396Y202249D01*
X374367Y202361D01*
X374334Y202471D01*
X374297Y202580D01*
X374256Y202688D01*
X374211Y202794D01*
X374163Y202899D01*
X374112Y203001D01*
X374056Y203102D01*
X373998Y203202D01*
X373936Y203299D01*
X373871Y203393D01*
X373802Y203486D01*
X373730Y203576D01*
X373656Y203664D01*
X373578Y203749D01*
X373497Y203831D01*
X373414Y203910D01*
X373328Y203987D01*
X373239Y204060D01*
X373148Y204131D01*
X373054Y204198D01*
X372959Y204262D01*
X372861Y204323D01*
X372761Y204380D01*
X372659Y204433D01*
X372555Y204484D01*
X372450Y204530D01*
X372343Y204573D01*
X372235Y204612D01*
X371946Y204749D01*
X371654Y204879D01*
X371358Y205002D01*
X371060Y205117D01*
X370759Y205226D01*
X370456Y205327D01*
X370150Y205421D01*
X369843Y205508D01*
X369533Y205587D01*
X369221Y205659D01*
X368908Y205723D01*
X368593Y205780D01*
X368277Y205830D01*
X367960Y205872D01*
X367642Y205906D01*
X367324Y205933D01*
X367004Y205952D01*
X366685Y205963D01*
X366365Y205967D01*
X366365Y196936D02*
X366045Y196940D01*
X365726Y196951D01*
X365406Y196970D01*
X365088Y196997D01*
X364770Y197031D01*
X364453Y197073D01*
X364137Y197123D01*
X363822Y197180D01*
X363509Y197244D01*
X363197Y197316D01*
X362887Y197395D01*
X362580Y197482D01*
X362274Y197576D01*
X361971Y197677D01*
X361670Y197786D01*
X361372Y197901D01*
X361076Y198024D01*
X360784Y198154D01*
X360495Y198291D01*
X360495Y198290D02*
X360387Y198329D01*
X360280Y198372D01*
X360175Y198418D01*
X360071Y198469D01*
X359969Y198522D01*
X359869Y198579D01*
X359771Y198640D01*
X359676Y198704D01*
X359582Y198771D01*
X359491Y198842D01*
X359402Y198915D01*
X359316Y198992D01*
X359233Y199071D01*
X359152Y199153D01*
X359074Y199238D01*
X359000Y199326D01*
X358928Y199416D01*
X358859Y199509D01*
X358794Y199603D01*
X358732Y199700D01*
X358674Y199800D01*
X358618Y199901D01*
X358567Y200003D01*
X358519Y200108D01*
X358474Y200214D01*
X358433Y200322D01*
X358396Y200431D01*
X358363Y200541D01*
X358334Y200653D01*
X358308Y200765D01*
X358286Y200878D01*
X358269Y200992D01*
X358255Y201106D01*
X358245Y201221D01*
X358239Y201336D01*
X358237Y201451D01*
X360495Y204611D02*
X360784Y204748D01*
X361076Y204878D01*
X361372Y205001D01*
X361670Y205116D01*
X361971Y205225D01*
X362274Y205326D01*
X362580Y205420D01*
X362887Y205507D01*
X363197Y205586D01*
X363509Y205658D01*
X363822Y205722D01*
X364137Y205779D01*
X364453Y205829D01*
X364770Y205871D01*
X365088Y205905D01*
X365406Y205932D01*
X365726Y205951D01*
X366045Y205962D01*
X366365Y205966D01*
X360495Y204612D02*
X360387Y204573D01*
X360280Y204530D01*
X360175Y204484D01*
X360071Y204433D01*
X359969Y204380D01*
X359869Y204323D01*
X359771Y204262D01*
X359676Y204198D01*
X359582Y204131D01*
X359491Y204060D01*
X359402Y203987D01*
X359316Y203910D01*
X359233Y203831D01*
X359152Y203749D01*
X359074Y203664D01*
X359000Y203576D01*
X358928Y203486D01*
X358859Y203393D01*
X358794Y203299D01*
X358732Y203202D01*
X358674Y203102D01*
X358618Y203001D01*
X358567Y202898D01*
X358519Y202794D01*
X358474Y202688D01*
X358433Y202580D01*
X358396Y202471D01*
X358363Y202361D01*
X358334Y202249D01*
X358308Y202137D01*
X358286Y202024D01*
X358269Y201910D01*
X358255Y201796D01*
X358245Y201681D01*
X358239Y201566D01*
X358237Y201451D01*
X361849Y197839D02*
X370881Y205064D01*
X365462Y216179D02*
X365462Y221598D01*
X365462Y216179D02*
X365464Y216061D01*
X365470Y215943D01*
X365479Y215825D01*
X365493Y215708D01*
X365510Y215591D01*
X365531Y215474D01*
X365556Y215359D01*
X365585Y215244D01*
X365618Y215130D01*
X365654Y215018D01*
X365694Y214907D01*
X365737Y214797D01*
X365784Y214688D01*
X365834Y214581D01*
X365889Y214476D01*
X365946Y214373D01*
X366007Y214272D01*
X366071Y214172D01*
X366138Y214075D01*
X366208Y213980D01*
X366282Y213888D01*
X366358Y213797D01*
X366438Y213710D01*
X366520Y213625D01*
X366605Y213543D01*
X366692Y213463D01*
X366783Y213387D01*
X366875Y213313D01*
X366970Y213243D01*
X367067Y213176D01*
X367167Y213112D01*
X367268Y213051D01*
X367371Y212994D01*
X367476Y212939D01*
X367583Y212889D01*
X367692Y212842D01*
X367802Y212799D01*
X367913Y212759D01*
X368025Y212723D01*
X368139Y212690D01*
X368254Y212661D01*
X368369Y212636D01*
X368486Y212615D01*
X368603Y212598D01*
X368720Y212584D01*
X368838Y212575D01*
X368956Y212569D01*
X369074Y212567D01*
X369977Y212567D01*
X369977Y212566D02*
X370110Y212568D01*
X370242Y212574D01*
X370374Y212584D01*
X370506Y212597D01*
X370638Y212615D01*
X370768Y212636D01*
X370899Y212661D01*
X371028Y212690D01*
X371156Y212723D01*
X371284Y212759D01*
X371410Y212799D01*
X371535Y212843D01*
X371659Y212891D01*
X371781Y212942D01*
X371902Y212997D01*
X372021Y213055D01*
X372139Y213117D01*
X372254Y213182D01*
X372368Y213251D01*
X372479Y213322D01*
X372588Y213398D01*
X372695Y213476D01*
X372800Y213557D01*
X372902Y213642D01*
X373002Y213729D01*
X373099Y213819D01*
X373194Y213912D01*
X373285Y214008D01*
X373374Y214106D01*
X373460Y214207D01*
X373543Y214311D01*
X373623Y214417D01*
X373699Y214525D01*
X373773Y214635D01*
X373843Y214748D01*
X373910Y214862D01*
X373973Y214979D01*
X374033Y215097D01*
X374090Y215217D01*
X374143Y215339D01*
X374192Y215462D01*
X374238Y215586D01*
X374280Y215712D01*
X374318Y215839D01*
X374353Y215967D01*
X374384Y216096D01*
X374411Y216225D01*
X374434Y216356D01*
X374454Y216487D01*
X374469Y216619D01*
X374481Y216751D01*
X374489Y216883D01*
X374493Y217016D01*
X374493Y217148D01*
X374489Y217281D01*
X374481Y217413D01*
X374469Y217545D01*
X374454Y217677D01*
X374434Y217808D01*
X374411Y217939D01*
X374384Y218068D01*
X374353Y218197D01*
X374318Y218325D01*
X374280Y218452D01*
X374238Y218578D01*
X374192Y218702D01*
X374143Y218825D01*
X374090Y218947D01*
X374033Y219067D01*
X373973Y219185D01*
X373910Y219302D01*
X373843Y219416D01*
X373773Y219529D01*
X373699Y219639D01*
X373623Y219747D01*
X373543Y219853D01*
X373460Y219957D01*
X373374Y220058D01*
X373285Y220156D01*
X373194Y220252D01*
X373099Y220345D01*
X373002Y220435D01*
X372902Y220522D01*
X372800Y220607D01*
X372695Y220688D01*
X372588Y220766D01*
X372479Y220842D01*
X372368Y220913D01*
X372254Y220982D01*
X372139Y221047D01*
X372021Y221109D01*
X371902Y221167D01*
X371781Y221222D01*
X371659Y221273D01*
X371535Y221321D01*
X371410Y221365D01*
X371284Y221405D01*
X371156Y221441D01*
X371028Y221474D01*
X370899Y221503D01*
X370768Y221528D01*
X370638Y221549D01*
X370506Y221567D01*
X370374Y221580D01*
X370242Y221590D01*
X370110Y221596D01*
X369977Y221598D01*
X365462Y221598D01*
X365287Y221596D01*
X365113Y221590D01*
X364939Y221579D01*
X364765Y221564D01*
X364591Y221545D01*
X364418Y221522D01*
X364246Y221495D01*
X364074Y221463D01*
X363903Y221428D01*
X363733Y221388D01*
X363564Y221344D01*
X363396Y221296D01*
X363229Y221244D01*
X363064Y221188D01*
X362900Y221128D01*
X362737Y221065D01*
X362577Y220997D01*
X362417Y220925D01*
X362260Y220850D01*
X362104Y220770D01*
X361951Y220687D01*
X361799Y220601D01*
X361650Y220510D01*
X361503Y220416D01*
X361358Y220319D01*
X361215Y220218D01*
X361075Y220114D01*
X360938Y220006D01*
X360803Y219895D01*
X360671Y219781D01*
X360542Y219664D01*
X360415Y219543D01*
X360292Y219420D01*
X360171Y219293D01*
X360054Y219164D01*
X359940Y219032D01*
X359829Y218897D01*
X359721Y218760D01*
X359617Y218620D01*
X359516Y218477D01*
X359419Y218332D01*
X359325Y218185D01*
X359234Y218036D01*
X359148Y217884D01*
X359065Y217731D01*
X358985Y217575D01*
X358910Y217418D01*
X358838Y217258D01*
X358770Y217098D01*
X358707Y216935D01*
X358647Y216771D01*
X358591Y216606D01*
X358539Y216439D01*
X358491Y216271D01*
X358447Y216102D01*
X358407Y215932D01*
X358372Y215761D01*
X358340Y215589D01*
X358313Y215417D01*
X358290Y215244D01*
X358271Y215070D01*
X358256Y214896D01*
X358245Y214722D01*
X358239Y214548D01*
X358237Y214373D01*
D10*
X0Y0D02*
X0Y502100D01*
X326900Y502100D02*
X326900Y0D01*
X326250Y482600D02*
X650Y482600D01*
X26000Y485792D01*
X26000Y479408D01*
X650Y482600D01*
X26000Y483900D01*
X26000Y481300D02*
X650Y482600D01*
X26000Y485200D01*
X26000Y480000D02*
X650Y482600D01*
X300900Y485792D02*
X326250Y482600D01*
X300900Y485792D02*
X300900Y479408D01*
X326250Y482600D01*
X300900Y483900D01*
X300900Y481300D02*
X326250Y482600D01*
X300900Y485200D01*
X300900Y480000D02*
X326250Y482600D01*
D11*
X194598Y489107D02*
X190082Y489107D01*
X189949Y489109D01*
X189817Y489115D01*
X189685Y489125D01*
X189553Y489138D01*
X189421Y489156D01*
X189291Y489177D01*
X189160Y489202D01*
X189031Y489231D01*
X188903Y489264D01*
X188775Y489300D01*
X188649Y489340D01*
X188524Y489384D01*
X188400Y489432D01*
X188278Y489483D01*
X188157Y489538D01*
X188038Y489596D01*
X187920Y489658D01*
X187805Y489723D01*
X187691Y489792D01*
X187580Y489863D01*
X187471Y489939D01*
X187364Y490017D01*
X187259Y490098D01*
X187157Y490183D01*
X187057Y490270D01*
X186960Y490360D01*
X186865Y490453D01*
X186774Y490549D01*
X186685Y490647D01*
X186599Y490748D01*
X186516Y490852D01*
X186436Y490958D01*
X186360Y491066D01*
X186286Y491176D01*
X186216Y491289D01*
X186149Y491403D01*
X186086Y491520D01*
X186026Y491638D01*
X185969Y491758D01*
X185916Y491880D01*
X185867Y492003D01*
X185821Y492127D01*
X185779Y492253D01*
X185741Y492380D01*
X185706Y492508D01*
X185675Y492637D01*
X185648Y492766D01*
X185625Y492897D01*
X185605Y493028D01*
X185590Y493160D01*
X185578Y493292D01*
X185570Y493424D01*
X185566Y493557D01*
X185566Y493689D01*
X185570Y493822D01*
X185578Y493954D01*
X185590Y494086D01*
X185605Y494218D01*
X185625Y494349D01*
X185648Y494480D01*
X185675Y494609D01*
X185706Y494738D01*
X185741Y494866D01*
X185779Y494993D01*
X185821Y495119D01*
X185867Y495243D01*
X185916Y495366D01*
X185969Y495488D01*
X186026Y495608D01*
X186086Y495726D01*
X186149Y495843D01*
X186216Y495957D01*
X186286Y496070D01*
X186360Y496180D01*
X186436Y496288D01*
X186516Y496394D01*
X186599Y496498D01*
X186685Y496599D01*
X186774Y496697D01*
X186865Y496793D01*
X186960Y496886D01*
X187057Y496976D01*
X187157Y497063D01*
X187259Y497148D01*
X187364Y497229D01*
X187471Y497307D01*
X187580Y497383D01*
X187691Y497454D01*
X187805Y497523D01*
X187920Y497588D01*
X188038Y497650D01*
X188157Y497708D01*
X188278Y497763D01*
X188400Y497814D01*
X188524Y497862D01*
X188649Y497906D01*
X188775Y497946D01*
X188903Y497982D01*
X189031Y498015D01*
X189160Y498044D01*
X189291Y498069D01*
X189421Y498090D01*
X189553Y498108D01*
X189685Y498121D01*
X189817Y498131D01*
X189949Y498137D01*
X190082Y498139D01*
X189179Y505363D02*
X194598Y505363D01*
X189179Y505363D02*
X189060Y505361D01*
X188940Y505355D01*
X188821Y505345D01*
X188703Y505331D01*
X188584Y505314D01*
X188467Y505292D01*
X188350Y505267D01*
X188235Y505237D01*
X188120Y505204D01*
X188006Y505167D01*
X187894Y505127D01*
X187783Y505082D01*
X187674Y505034D01*
X187566Y504983D01*
X187460Y504928D01*
X187356Y504869D01*
X187254Y504807D01*
X187154Y504742D01*
X187056Y504673D01*
X186960Y504601D01*
X186867Y504526D01*
X186777Y504449D01*
X186689Y504368D01*
X186604Y504284D01*
X186522Y504197D01*
X186442Y504108D01*
X186366Y504016D01*
X186292Y503922D01*
X186222Y503825D01*
X186155Y503727D01*
X186091Y503626D01*
X186031Y503522D01*
X185974Y503417D01*
X185921Y503310D01*
X185871Y503202D01*
X185825Y503092D01*
X185783Y502980D01*
X185744Y502867D01*
X185709Y502753D01*
X185678Y502638D01*
X185650Y502521D01*
X185627Y502404D01*
X185607Y502287D01*
X185591Y502168D01*
X185579Y502049D01*
X185571Y501930D01*
X185567Y501811D01*
X185567Y501691D01*
X185571Y501572D01*
X185579Y501453D01*
X185591Y501334D01*
X185607Y501215D01*
X185627Y501098D01*
X185650Y500981D01*
X185678Y500864D01*
X185709Y500749D01*
X185744Y500635D01*
X185783Y500522D01*
X185825Y500410D01*
X185871Y500300D01*
X185921Y500192D01*
X185974Y500085D01*
X186031Y499980D01*
X186091Y499876D01*
X186155Y499775D01*
X186222Y499677D01*
X186292Y499580D01*
X186366Y499486D01*
X186442Y499394D01*
X186522Y499305D01*
X186604Y499218D01*
X186689Y499134D01*
X186777Y499053D01*
X186867Y498976D01*
X186960Y498901D01*
X187056Y498829D01*
X187154Y498760D01*
X187254Y498695D01*
X187356Y498633D01*
X187460Y498574D01*
X187566Y498519D01*
X187674Y498468D01*
X187783Y498420D01*
X187894Y498375D01*
X188006Y498335D01*
X188120Y498298D01*
X188235Y498265D01*
X188350Y498235D01*
X188467Y498210D01*
X188584Y498188D01*
X188703Y498171D01*
X188821Y498157D01*
X188940Y498147D01*
X189060Y498141D01*
X189179Y498139D01*
X189179Y498138D02*
X192792Y498138D01*
X174000Y505363D02*
X173875Y505361D01*
X173750Y505355D01*
X173625Y505346D01*
X173501Y505332D01*
X173377Y505315D01*
X173253Y505294D01*
X173131Y505269D01*
X173009Y505240D01*
X172888Y505208D01*
X172768Y505172D01*
X172649Y505132D01*
X172532Y505089D01*
X172416Y505042D01*
X172301Y504991D01*
X172189Y504937D01*
X172077Y504879D01*
X171968Y504819D01*
X171861Y504754D01*
X171755Y504687D01*
X171652Y504616D01*
X171551Y504542D01*
X171452Y504465D01*
X171356Y504385D01*
X171262Y504302D01*
X171171Y504217D01*
X171082Y504128D01*
X170997Y504037D01*
X170914Y503943D01*
X170834Y503847D01*
X170757Y503748D01*
X170683Y503647D01*
X170612Y503544D01*
X170545Y503438D01*
X170480Y503331D01*
X170420Y503222D01*
X170362Y503110D01*
X170308Y502998D01*
X170257Y502883D01*
X170210Y502767D01*
X170167Y502650D01*
X170127Y502531D01*
X170091Y502411D01*
X170059Y502290D01*
X170030Y502168D01*
X170005Y502046D01*
X169984Y501922D01*
X169967Y501798D01*
X169953Y501674D01*
X169944Y501549D01*
X169938Y501424D01*
X169936Y501299D01*
X174000Y505363D02*
X174143Y505361D01*
X174285Y505355D01*
X174428Y505345D01*
X174570Y505332D01*
X174711Y505314D01*
X174853Y505293D01*
X174993Y505268D01*
X175133Y505239D01*
X175272Y505206D01*
X175410Y505169D01*
X175547Y505129D01*
X175682Y505085D01*
X175817Y505037D01*
X175950Y504985D01*
X176082Y504930D01*
X176212Y504871D01*
X176340Y504809D01*
X176467Y504743D01*
X176592Y504674D01*
X176715Y504602D01*
X176836Y504526D01*
X176954Y504447D01*
X177071Y504364D01*
X177185Y504279D01*
X177297Y504190D01*
X177406Y504099D01*
X177513Y504004D01*
X177618Y503907D01*
X177719Y503806D01*
X177818Y503703D01*
X177914Y503598D01*
X178007Y503489D01*
X178097Y503378D01*
X178184Y503265D01*
X178268Y503150D01*
X178348Y503032D01*
X178426Y502912D01*
X178500Y502790D01*
X178570Y502666D01*
X178638Y502540D01*
X178701Y502412D01*
X178762Y502283D01*
X178819Y502152D01*
X178872Y502020D01*
X178921Y501886D01*
X178967Y501751D01*
X171291Y498138D02*
X171197Y498230D01*
X171107Y498324D01*
X171019Y498421D01*
X170934Y498521D01*
X170852Y498623D01*
X170773Y498728D01*
X170698Y498835D01*
X170626Y498944D01*
X170557Y499055D01*
X170491Y499169D01*
X170429Y499284D01*
X170370Y499401D01*
X170315Y499520D01*
X170264Y499640D01*
X170216Y499762D01*
X170171Y499885D01*
X170131Y500009D01*
X170094Y500135D01*
X170061Y500262D01*
X170032Y500389D01*
X170006Y500518D01*
X169985Y500647D01*
X169967Y500777D01*
X169954Y500907D01*
X169944Y501037D01*
X169938Y501168D01*
X169936Y501299D01*
X171290Y498138D02*
X178967Y489107D01*
X169936Y489107D01*
X163961Y489107D02*
X163961Y490010D01*
X163058Y490010D01*
X163058Y489107D01*
X163961Y489107D01*
X157083Y498138D02*
X151664Y498138D01*
X151546Y498136D01*
X151428Y498130D01*
X151310Y498121D01*
X151193Y498107D01*
X151076Y498090D01*
X150959Y498069D01*
X150844Y498044D01*
X150729Y498015D01*
X150615Y497982D01*
X150503Y497946D01*
X150392Y497906D01*
X150282Y497863D01*
X150173Y497816D01*
X150066Y497766D01*
X149961Y497711D01*
X149858Y497654D01*
X149757Y497593D01*
X149657Y497529D01*
X149560Y497462D01*
X149465Y497392D01*
X149373Y497318D01*
X149282Y497242D01*
X149195Y497162D01*
X149110Y497080D01*
X149028Y496995D01*
X148948Y496908D01*
X148872Y496817D01*
X148798Y496725D01*
X148728Y496630D01*
X148661Y496533D01*
X148597Y496433D01*
X148536Y496332D01*
X148479Y496229D01*
X148424Y496124D01*
X148374Y496017D01*
X148327Y495908D01*
X148284Y495798D01*
X148244Y495687D01*
X148208Y495575D01*
X148175Y495461D01*
X148146Y495346D01*
X148121Y495231D01*
X148100Y495114D01*
X148083Y494997D01*
X148069Y494880D01*
X148060Y494762D01*
X148054Y494644D01*
X148052Y494526D01*
X148052Y493623D01*
X148054Y493490D01*
X148060Y493358D01*
X148070Y493226D01*
X148083Y493094D01*
X148101Y492962D01*
X148122Y492832D01*
X148147Y492701D01*
X148176Y492572D01*
X148209Y492444D01*
X148245Y492316D01*
X148285Y492190D01*
X148329Y492065D01*
X148377Y491941D01*
X148428Y491819D01*
X148483Y491698D01*
X148541Y491579D01*
X148603Y491461D01*
X148668Y491346D01*
X148737Y491232D01*
X148808Y491121D01*
X148884Y491012D01*
X148962Y490905D01*
X149043Y490800D01*
X149128Y490698D01*
X149215Y490598D01*
X149305Y490501D01*
X149398Y490406D01*
X149494Y490315D01*
X149592Y490226D01*
X149693Y490140D01*
X149797Y490057D01*
X149903Y489977D01*
X150011Y489901D01*
X150121Y489827D01*
X150234Y489757D01*
X150348Y489690D01*
X150465Y489627D01*
X150583Y489567D01*
X150703Y489510D01*
X150825Y489457D01*
X150948Y489408D01*
X151072Y489362D01*
X151198Y489320D01*
X151325Y489282D01*
X151453Y489247D01*
X151582Y489216D01*
X151711Y489189D01*
X151842Y489166D01*
X151973Y489146D01*
X152105Y489131D01*
X152237Y489119D01*
X152369Y489111D01*
X152502Y489107D01*
X152634Y489107D01*
X152767Y489111D01*
X152899Y489119D01*
X153031Y489131D01*
X153163Y489146D01*
X153294Y489166D01*
X153425Y489189D01*
X153554Y489216D01*
X153683Y489247D01*
X153811Y489282D01*
X153938Y489320D01*
X154064Y489362D01*
X154188Y489408D01*
X154311Y489457D01*
X154433Y489510D01*
X154553Y489567D01*
X154671Y489627D01*
X154788Y489690D01*
X154902Y489757D01*
X155015Y489827D01*
X155125Y489901D01*
X155233Y489977D01*
X155339Y490057D01*
X155443Y490140D01*
X155544Y490226D01*
X155642Y490315D01*
X155738Y490406D01*
X155831Y490501D01*
X155921Y490598D01*
X156008Y490698D01*
X156093Y490800D01*
X156174Y490905D01*
X156252Y491012D01*
X156328Y491121D01*
X156399Y491232D01*
X156468Y491346D01*
X156533Y491461D01*
X156595Y491579D01*
X156653Y491698D01*
X156708Y491819D01*
X156759Y491941D01*
X156807Y492065D01*
X156851Y492190D01*
X156891Y492316D01*
X156927Y492444D01*
X156960Y492572D01*
X156989Y492701D01*
X157014Y492832D01*
X157035Y492962D01*
X157053Y493094D01*
X157066Y493226D01*
X157076Y493358D01*
X157082Y493490D01*
X157084Y493623D01*
X157083Y493623D02*
X157083Y498138D01*
X157081Y498313D01*
X157075Y498487D01*
X157064Y498661D01*
X157049Y498835D01*
X157030Y499009D01*
X157007Y499182D01*
X156980Y499354D01*
X156948Y499526D01*
X156913Y499697D01*
X156873Y499867D01*
X156829Y500036D01*
X156781Y500204D01*
X156729Y500371D01*
X156673Y500536D01*
X156613Y500700D01*
X156550Y500863D01*
X156482Y501023D01*
X156410Y501183D01*
X156335Y501340D01*
X156255Y501496D01*
X156172Y501649D01*
X156086Y501801D01*
X155995Y501950D01*
X155901Y502097D01*
X155804Y502242D01*
X155703Y502385D01*
X155599Y502525D01*
X155491Y502662D01*
X155380Y502797D01*
X155266Y502929D01*
X155149Y503058D01*
X155028Y503185D01*
X154905Y503308D01*
X154778Y503429D01*
X154649Y503546D01*
X154517Y503660D01*
X154382Y503771D01*
X154245Y503879D01*
X154105Y503983D01*
X153962Y504084D01*
X153817Y504181D01*
X153670Y504275D01*
X153521Y504366D01*
X153369Y504452D01*
X153216Y504535D01*
X153060Y504615D01*
X152903Y504690D01*
X152743Y504762D01*
X152583Y504830D01*
X152420Y504893D01*
X152256Y504953D01*
X152091Y505009D01*
X151924Y505061D01*
X151756Y505109D01*
X151587Y505153D01*
X151417Y505193D01*
X151246Y505228D01*
X151074Y505260D01*
X150902Y505287D01*
X150729Y505310D01*
X150555Y505329D01*
X150381Y505344D01*
X150207Y505355D01*
X150033Y505361D01*
X149858Y505363D01*
X137839Y496332D02*
X132421Y496332D01*
X137839Y496332D02*
X137957Y496334D01*
X138075Y496340D01*
X138193Y496349D01*
X138310Y496363D01*
X138427Y496380D01*
X138544Y496401D01*
X138659Y496426D01*
X138774Y496455D01*
X138888Y496488D01*
X139000Y496524D01*
X139111Y496564D01*
X139221Y496607D01*
X139330Y496654D01*
X139437Y496704D01*
X139542Y496759D01*
X139645Y496816D01*
X139746Y496877D01*
X139846Y496941D01*
X139943Y497008D01*
X140038Y497078D01*
X140130Y497152D01*
X140221Y497228D01*
X140308Y497308D01*
X140393Y497390D01*
X140475Y497475D01*
X140555Y497562D01*
X140631Y497653D01*
X140705Y497745D01*
X140775Y497840D01*
X140842Y497937D01*
X140906Y498037D01*
X140967Y498138D01*
X141024Y498241D01*
X141079Y498346D01*
X141129Y498453D01*
X141176Y498562D01*
X141219Y498672D01*
X141259Y498783D01*
X141295Y498895D01*
X141328Y499009D01*
X141357Y499124D01*
X141382Y499239D01*
X141403Y499356D01*
X141420Y499473D01*
X141434Y499590D01*
X141443Y499708D01*
X141449Y499826D01*
X141451Y499944D01*
X141452Y499944D02*
X141452Y500847D01*
X141450Y500980D01*
X141444Y501112D01*
X141434Y501244D01*
X141421Y501376D01*
X141403Y501508D01*
X141382Y501638D01*
X141357Y501769D01*
X141328Y501898D01*
X141295Y502026D01*
X141259Y502154D01*
X141219Y502280D01*
X141175Y502405D01*
X141127Y502529D01*
X141076Y502651D01*
X141021Y502772D01*
X140963Y502891D01*
X140901Y503009D01*
X140836Y503124D01*
X140767Y503238D01*
X140696Y503349D01*
X140620Y503458D01*
X140542Y503565D01*
X140461Y503670D01*
X140376Y503772D01*
X140289Y503872D01*
X140199Y503969D01*
X140106Y504064D01*
X140010Y504155D01*
X139912Y504244D01*
X139811Y504330D01*
X139707Y504413D01*
X139601Y504493D01*
X139493Y504569D01*
X139383Y504643D01*
X139270Y504713D01*
X139156Y504780D01*
X139039Y504843D01*
X138921Y504903D01*
X138801Y504960D01*
X138679Y505013D01*
X138556Y505062D01*
X138432Y505108D01*
X138306Y505150D01*
X138179Y505188D01*
X138051Y505223D01*
X137922Y505254D01*
X137793Y505281D01*
X137662Y505304D01*
X137531Y505324D01*
X137399Y505339D01*
X137267Y505351D01*
X137135Y505359D01*
X137002Y505363D01*
X136870Y505363D01*
X136737Y505359D01*
X136605Y505351D01*
X136473Y505339D01*
X136341Y505324D01*
X136210Y505304D01*
X136079Y505281D01*
X135950Y505254D01*
X135821Y505223D01*
X135693Y505188D01*
X135566Y505150D01*
X135440Y505108D01*
X135316Y505062D01*
X135193Y505013D01*
X135071Y504960D01*
X134951Y504903D01*
X134833Y504843D01*
X134716Y504780D01*
X134602Y504713D01*
X134489Y504643D01*
X134379Y504569D01*
X134271Y504493D01*
X134165Y504413D01*
X134061Y504330D01*
X133960Y504244D01*
X133862Y504155D01*
X133766Y504064D01*
X133673Y503969D01*
X133583Y503872D01*
X133496Y503772D01*
X133411Y503670D01*
X133330Y503565D01*
X133252Y503458D01*
X133176Y503349D01*
X133105Y503238D01*
X133036Y503124D01*
X132971Y503009D01*
X132909Y502891D01*
X132851Y502772D01*
X132796Y502651D01*
X132745Y502529D01*
X132697Y502405D01*
X132653Y502280D01*
X132613Y502154D01*
X132577Y502026D01*
X132544Y501898D01*
X132515Y501769D01*
X132490Y501638D01*
X132469Y501508D01*
X132451Y501376D01*
X132438Y501244D01*
X132428Y501112D01*
X132422Y500980D01*
X132420Y500847D01*
X132421Y500847D02*
X132421Y496332D01*
X132423Y496157D01*
X132429Y495983D01*
X132440Y495809D01*
X132455Y495635D01*
X132474Y495461D01*
X132497Y495288D01*
X132524Y495116D01*
X132556Y494944D01*
X132591Y494773D01*
X132631Y494603D01*
X132675Y494434D01*
X132723Y494266D01*
X132775Y494099D01*
X132831Y493934D01*
X132891Y493770D01*
X132954Y493607D01*
X133022Y493447D01*
X133094Y493287D01*
X133169Y493130D01*
X133249Y492974D01*
X133332Y492821D01*
X133418Y492669D01*
X133509Y492520D01*
X133603Y492373D01*
X133700Y492228D01*
X133801Y492085D01*
X133905Y491945D01*
X134013Y491808D01*
X134124Y491673D01*
X134238Y491541D01*
X134355Y491412D01*
X134476Y491285D01*
X134599Y491162D01*
X134726Y491041D01*
X134855Y490924D01*
X134987Y490810D01*
X135122Y490699D01*
X135259Y490591D01*
X135399Y490487D01*
X135542Y490386D01*
X135687Y490289D01*
X135834Y490195D01*
X135983Y490104D01*
X136135Y490018D01*
X136288Y489935D01*
X136444Y489855D01*
X136601Y489780D01*
X136761Y489708D01*
X136921Y489640D01*
X137084Y489577D01*
X137248Y489517D01*
X137413Y489461D01*
X137580Y489409D01*
X137748Y489361D01*
X137917Y489317D01*
X138087Y489277D01*
X138258Y489242D01*
X138430Y489210D01*
X138602Y489183D01*
X138775Y489160D01*
X138949Y489141D01*
X139123Y489126D01*
X139297Y489115D01*
X139471Y489109D01*
X139646Y489107D01*
D12*
X292100Y50800D03*
D13*
X266700Y50800D03*
D14*
X25400Y120396D02*
X25400Y133604D01*
X25400Y32004D02*
X25400Y18796D01*
D15*
X101600Y25400D03*
X101600Y127000D03*
D16*
X190500Y101600D03*
X292100Y101600D03*
D15*
X63500Y25400D03*
X63500Y127000D03*
D17*
X292100Y203200D03*
X190500Y203200D03*
D16*
X63500Y152400D03*
X165100Y152400D03*
D18*
X110236Y254000D03*
X137668Y254000D03*
X165100Y254000D03*
X192532Y254000D03*
X219964Y254000D03*
X123952Y279400D03*
X151384Y279400D03*
X178816Y279400D03*
X206248Y279400D03*
D19*
X139700Y45640D02*
X139700Y30560D01*
X165100Y30560D02*
X165100Y45640D01*
X190500Y45640D02*
X190500Y30560D01*
X215900Y30560D02*
X215900Y45640D01*
D14*
X190500Y145796D02*
X190500Y159004D01*
X241300Y159004D02*
X241300Y145796D01*
X215900Y145796D02*
X215900Y159004D01*
X101600Y196596D02*
X101600Y209804D01*
X152400Y209804D02*
X152400Y196596D01*
X127000Y196596D02*
X127000Y209804D01*
D11*
X220980Y172212D02*
X220980Y252984D01*
X220980Y172212D02*
X240792Y152400D01*
X220980Y252984D02*
X219964Y254000D01*
X240792Y152400D02*
X241300Y152400D01*
X224028Y51816D02*
X266700Y51816D01*
X224028Y51816D02*
X219456Y56388D01*
X94488Y56388D01*
X64008Y25908D01*
X266700Y50800D02*
X266700Y51816D01*
X64008Y25908D02*
X63500Y25400D01*
X25908Y128016D02*
X25908Y147828D01*
X121920Y243840D01*
X155448Y243840D01*
X164592Y252984D01*
X25908Y128016D02*
X25400Y127000D01*
X164592Y252984D02*
X165100Y254000D01*
X190500Y208788D02*
X190500Y204216D01*
X190500Y208788D02*
X155448Y243840D01*
X190500Y204216D02*
X190500Y203200D01*
X64008Y140208D02*
X64008Y128016D01*
X64008Y140208D02*
X100584Y176784D01*
X100584Y202692D01*
X64008Y128016D02*
X63500Y127000D01*
X100584Y202692D02*
X101600Y203200D01*
M02*
