G04 EAGLE Gerber RS-274X export*
G75*
%MOMM*%
%FSLAX34Y34*%
%LPD*%
%IN*%
%IPPOS*%
%AMOC8*
5,1,8,0,0,1.08239X$1,22.5*%
G01*
%ADD10C,0.254000*%


D10*
X0Y0D02*
X326900Y0D01*
X326900Y380900D01*
X0Y380900D01*
X0Y0D01*
X56388Y266160D02*
X56317Y265081D01*
X56176Y264009D01*
X55965Y262949D01*
X55686Y261905D01*
X55338Y260881D01*
X54924Y259883D01*
X54446Y258913D01*
X53906Y257977D01*
X53305Y257078D01*
X52647Y256221D01*
X51935Y255408D01*
X51170Y254644D01*
X50357Y253931D01*
X49500Y253273D01*
X48601Y252672D01*
X47665Y252132D01*
X46695Y251654D01*
X45697Y251240D01*
X44673Y250892D01*
X43629Y250613D01*
X42569Y250402D01*
X41497Y250261D01*
X40418Y250190D01*
X39338Y250190D01*
X38259Y250261D01*
X37187Y250402D01*
X36127Y250613D01*
X35083Y250892D01*
X34059Y251240D01*
X33061Y251654D01*
X32091Y252132D01*
X31155Y252672D01*
X30256Y253273D01*
X29399Y253931D01*
X28586Y254644D01*
X27822Y255408D01*
X27109Y256221D01*
X26451Y257078D01*
X25850Y257977D01*
X25310Y258913D01*
X24832Y259883D01*
X24418Y260881D01*
X24070Y261905D01*
X23791Y262949D01*
X23580Y264009D01*
X23439Y265081D01*
X23368Y266160D01*
X23368Y267240D01*
X23439Y268319D01*
X23580Y269391D01*
X23791Y270451D01*
X24070Y271495D01*
X24418Y272519D01*
X24832Y273517D01*
X25310Y274487D01*
X25850Y275423D01*
X26451Y276322D01*
X27109Y277179D01*
X27822Y277992D01*
X28586Y278757D01*
X29399Y279469D01*
X30256Y280127D01*
X31155Y280728D01*
X32091Y281268D01*
X33061Y281746D01*
X34059Y282160D01*
X35083Y282508D01*
X36127Y282787D01*
X37187Y282998D01*
X38259Y283139D01*
X39338Y283210D01*
X40418Y283210D01*
X41497Y283139D01*
X42569Y282998D01*
X43629Y282787D01*
X44673Y282508D01*
X45697Y282160D01*
X46695Y281746D01*
X47665Y281268D01*
X48601Y280728D01*
X49500Y280127D01*
X50357Y279469D01*
X51170Y278757D01*
X51935Y277992D01*
X52647Y277179D01*
X53305Y276322D01*
X53906Y275423D01*
X54446Y274487D01*
X54924Y273517D01*
X55338Y272519D01*
X55686Y271495D01*
X55965Y270451D01*
X56176Y269391D01*
X56317Y268319D01*
X56388Y267240D01*
X56388Y266160D01*
X306832Y266160D02*
X306761Y265081D01*
X306620Y264009D01*
X306409Y262949D01*
X306130Y261905D01*
X305782Y260881D01*
X305368Y259883D01*
X304890Y258913D01*
X304350Y257977D01*
X303749Y257078D01*
X303091Y256221D01*
X302379Y255408D01*
X301614Y254644D01*
X300801Y253931D01*
X299944Y253273D01*
X299045Y252672D01*
X298109Y252132D01*
X297139Y251654D01*
X296141Y251240D01*
X295117Y250892D01*
X294073Y250613D01*
X293013Y250402D01*
X291941Y250261D01*
X290862Y250190D01*
X289782Y250190D01*
X288703Y250261D01*
X287631Y250402D01*
X286571Y250613D01*
X285527Y250892D01*
X284503Y251240D01*
X283505Y251654D01*
X282535Y252132D01*
X281599Y252672D01*
X280700Y253273D01*
X279843Y253931D01*
X279030Y254644D01*
X278266Y255408D01*
X277553Y256221D01*
X276895Y257078D01*
X276294Y257977D01*
X275754Y258913D01*
X275276Y259883D01*
X274862Y260881D01*
X274514Y261905D01*
X274235Y262949D01*
X274024Y264009D01*
X273883Y265081D01*
X273812Y266160D01*
X273812Y267240D01*
X273883Y268319D01*
X274024Y269391D01*
X274235Y270451D01*
X274514Y271495D01*
X274862Y272519D01*
X275276Y273517D01*
X275754Y274487D01*
X276294Y275423D01*
X276895Y276322D01*
X277553Y277179D01*
X278266Y277992D01*
X279030Y278757D01*
X279843Y279469D01*
X280700Y280127D01*
X281599Y280728D01*
X282535Y281268D01*
X283505Y281746D01*
X284503Y282160D01*
X285527Y282508D01*
X286571Y282787D01*
X287631Y282998D01*
X288703Y283139D01*
X289782Y283210D01*
X290862Y283210D01*
X291941Y283139D01*
X293013Y282998D01*
X294073Y282787D01*
X295117Y282508D01*
X296141Y282160D01*
X297139Y281746D01*
X298109Y281268D01*
X299045Y280728D01*
X299944Y280127D01*
X300801Y279469D01*
X301614Y278757D01*
X302379Y277992D01*
X303091Y277179D01*
X303749Y276322D01*
X304350Y275423D01*
X304890Y274487D01*
X305368Y273517D01*
X305782Y272519D01*
X306130Y271495D01*
X306409Y270451D01*
X306620Y269391D01*
X306761Y268319D01*
X306832Y267240D01*
X306832Y266160D01*
M02*
