G04 EAGLE Gerber RS-274X export*
G75*
%MOMM*%
%FSLAX34Y34*%
%LPD*%
%INSoldermask Top*%
%IPPOS*%
%AMOC8*
5,1,8,0,0,1.08239X$1,22.5*%
G01*
%ADD10P,1.951982X8X22.500000*%
%ADD11C,1.803400*%
%ADD12C,1.524000*%
%ADD13P,1.649562X8X112.500000*%
%ADD14P,1.649562X8X22.500000*%
%ADD15P,1.649562X8X202.500000*%
%ADD16P,1.869504X8X22.500000*%
%ADD17C,3.505200*%
%ADD18C,1.711200*%


D10*
X292100Y50800D03*
D11*
X266700Y50800D03*
D12*
X25400Y120396D02*
X25400Y133604D01*
X25400Y32004D02*
X25400Y18796D01*
D13*
X101600Y25400D03*
X101600Y127000D03*
D14*
X190500Y101600D03*
X292100Y101600D03*
D13*
X63500Y25400D03*
X63500Y127000D03*
D15*
X292100Y203200D03*
X190500Y203200D03*
D14*
X63500Y152400D03*
X165100Y152400D03*
D16*
X110236Y254000D03*
X137668Y254000D03*
X165100Y254000D03*
X192532Y254000D03*
X219964Y254000D03*
X123952Y279400D03*
X151384Y279400D03*
X178816Y279400D03*
X206248Y279400D03*
D17*
X39878Y266700D03*
X290322Y266700D03*
D18*
X139700Y45640D02*
X139700Y30560D01*
X165100Y30560D02*
X165100Y45640D01*
X190500Y45640D02*
X190500Y30560D01*
X215900Y30560D02*
X215900Y45640D01*
D12*
X190500Y145796D02*
X190500Y159004D01*
X241300Y159004D02*
X241300Y145796D01*
X215900Y145796D02*
X215900Y159004D01*
X101600Y196596D02*
X101600Y209804D01*
X152400Y209804D02*
X152400Y196596D01*
X127000Y196596D02*
X127000Y209804D01*
M02*
