M48
;GenerationSoftware,Autodesk,EAGLE,9.6.2*%
;CreationDate,2021-06-30T18:42:37Z*%
FMAT,2
ICI,OFF
METRIC,TZ,000.000
T4C0.813
T3C1.000
T2C1.016
T1C3.302
%
G90
M71
T1
X3988Y26670
X29032Y26670
T2
X21996Y25400
X12395Y27940
X15138Y27940
X17882Y27940
X20625Y27940
X11024Y25400
X13767Y25400
X16510Y25400
X19253Y25400
T3
X13970Y3810
X16510Y3810
X19050Y3810
X21590Y3810
T4
X29210Y5080
X26670Y5080
X2540Y12700
X2540Y2540
X10160Y2540
X10160Y12700
X19050Y10160
X29210Y10160
X6350Y2540
X6350Y12700
X29210Y20320
X19050Y20320
X6350Y15240
X16510Y15240
X19050Y15240
X24130Y15240
X21590Y15240
X10160Y20320
X15240Y20320
X12700Y20320
M30